<svg width="433" height="147" viewBox="0 0 433 147" fill="none" xmlns="http://www.w3.org/2000/svg">
<path d="M168.125 133V103.375H172.062V133H168.125ZM167.469 92.75C167.469 92 167.698 91.375 168.156 90.875C168.615 90.3542 169.271 90.0938 170.125 90.0938C170.958 90.0938 171.604 90.3438 172.062 90.8438C172.521 91.3438 172.75 91.9792 172.75 92.75C172.75 93.4792 172.521 94.1042 172.062 94.625C171.604 95.1458 170.948 95.4062 170.094 95.4062C169.24 95.4062 168.583 95.1458 168.125 94.625C167.688 94.1042 167.469 93.4792 167.469 92.75ZM176.25 106.781V103.375H192.562V106.781H176.25ZM181.531 125.062V105.031V104.562V92.9375H185.5V125.062C185.5 127.167 185.802 128.542 186.406 129.188C187.031 129.833 188.01 130.156 189.344 130.156C189.844 130.156 190.333 130.115 190.812 130.031C191.312 129.927 191.792 129.771 192.25 129.562V133.062C191.833 133.229 191.302 133.375 190.656 133.5C190.01 133.625 189.302 133.688 188.531 133.688C186.365 133.688 184.656 133.062 183.406 131.812C182.156 130.542 181.531 128.292 181.531 125.062ZM193.375 103.375H197.438L205.219 124.625C205.51 125.438 205.771 126.198 206 126.906C206.25 127.615 206.417 128.146 206.5 128.5H206.688C206.792 128.146 206.969 127.615 207.219 126.906C207.469 126.198 207.74 125.438 208.031 124.625L215.812 103.375H219.812L208.438 133H204.75L193.375 103.375ZM223.938 133V103.375H227.875V133H223.938ZM223.281 92.75C223.281 92 223.51 91.375 223.969 90.875C224.427 90.3542 225.083 90.0938 225.938 90.0938C226.771 90.0938 227.417 90.3438 227.875 90.8438C228.333 91.3438 228.562 91.9792 228.562 92.75C228.562 93.4792 228.333 94.1042 227.875 94.625C227.417 95.1458 226.76 95.4062 225.906 95.4062C225.052 95.4062 224.396 95.1458 223.938 94.625C223.5 94.1042 223.281 93.4792 223.281 92.75ZM235.906 133V86.9062H239.875V117L252.656 103.375H257.438L239.875 121.906V133H235.906ZM254.219 133L242.5 116.625L245.094 113.812L258.75 133H254.219ZM274.875 133V87.5H285.906C291.448 87.5 295.854 89.4062 299.125 93.2188C302.396 97.0104 304.031 102.26 304.031 108.969V111.531C304.031 118.219 302.427 123.469 299.219 127.281C296.01 131.094 291.573 133 285.906 133H274.875ZM278.938 129.469H285.906C290.344 129.469 293.781 127.896 296.219 124.75C298.656 121.604 299.875 117.198 299.875 111.531V108.969C299.875 103.26 298.604 98.8542 296.062 95.75C293.542 92.625 290.156 91.0521 285.906 91.0312H278.938V129.469ZM308.906 118.656V117.656C308.906 113.198 310.073 109.594 312.406 106.844C314.74 104.073 317.823 102.688 321.656 102.688C325.51 102.688 328.448 103.969 330.469 106.531C332.51 109.073 333.531 112.635 333.531 117.219V118.812H311.156V115.5H329.562V115.188C329.562 112.812 328.948 110.708 327.719 108.875C326.51 107.042 324.51 106.125 321.719 106.125C318.781 106.125 316.562 107.198 315.062 109.344C313.583 111.469 312.844 114.24 312.844 117.656V118.656C312.844 122.094 313.635 124.896 315.219 127.062C316.802 129.208 319.115 130.281 322.156 130.281C324.177 130.281 325.896 129.875 327.312 129.062C328.75 128.229 329.875 127.167 330.688 125.875L333.281 128.25C332.448 129.625 331.104 130.875 329.25 132C327.396 133.125 325.052 133.688 322.219 133.688C317.969 133.688 314.688 132.323 312.375 129.594C310.062 126.844 308.906 123.198 308.906 118.656ZM338.062 123.938H341.969V124.5C341.969 126.521 342.615 127.99 343.906 128.906C345.198 129.802 346.969 130.25 349.219 130.25C351.469 130.25 353.229 129.833 354.5 129C355.771 128.146 356.406 126.885 356.406 125.219C356.406 123.656 355.833 122.5 354.688 121.75C353.562 120.979 351.458 120.188 348.375 119.375C345.229 118.542 342.854 117.479 341.25 116.188C339.646 114.896 338.844 113.062 338.844 110.688C338.844 108.271 339.771 106.333 341.625 104.875C343.5 103.417 346.01 102.688 349.156 102.688C352.302 102.688 354.844 103.448 356.781 104.969C358.719 106.469 359.688 108.615 359.688 111.406V111.938H355.75V111.375C355.75 109.5 355.177 108.167 354.031 107.375C352.906 106.562 351.281 106.156 349.156 106.156C347.073 106.156 345.49 106.531 344.406 107.281C343.344 108.031 342.812 109.135 342.812 110.594C342.812 111.885 343.354 112.906 344.438 113.656C345.542 114.406 347.594 115.188 350.594 116C353.656 116.833 356.042 117.906 357.75 119.219C359.479 120.531 360.344 122.417 360.344 124.875C360.344 127.521 359.417 129.656 357.562 131.281C355.729 132.885 352.958 133.688 349.25 133.688C345.562 133.688 342.771 132.885 340.875 131.281C339 129.656 338.062 127.396 338.062 124.5V123.938ZM367 133V103.375H370.938V133H367ZM366.344 92.75C366.344 92 366.573 91.375 367.031 90.875C367.49 90.3542 368.146 90.0938 369 90.0938C369.833 90.0938 370.479 90.3438 370.938 90.8438C371.396 91.3438 371.625 91.9792 371.625 92.75C371.625 93.4792 371.396 94.1042 370.938 94.625C370.479 95.1458 369.823 95.4062 368.969 95.4062C368.115 95.4062 367.458 95.1458 367 94.625C366.562 94.1042 366.344 93.4792 366.344 92.75ZM378.344 142.688L380.5 139.594C381.417 140.427 382.646 141.198 384.188 141.906C385.75 142.615 387.562 142.969 389.625 142.969C392.125 142.969 394.188 142.104 395.812 140.375C397.438 138.646 398.25 135.896 398.25 132.125V129.031C397.312 130.344 396.062 131.406 394.5 132.219C392.938 133.031 391.073 133.438 388.906 133.438C385.219 133.438 382.312 132.062 380.188 129.312C378.083 126.542 377.031 122.99 377.031 118.656V117.656C377.031 113.344 378.083 109.781 380.188 106.969C382.312 104.156 385.281 102.75 389.094 102.75C391.115 102.75 392.948 103.188 394.594 104.062C396.26 104.917 397.51 106 398.344 107.312H398.438L398.5 103.375H402.188V132.125C402.188 136.854 401.042 140.427 398.75 142.844C396.479 145.281 393.385 146.5 389.469 146.5C387.177 146.5 385.073 146.135 383.156 145.406C381.24 144.698 379.635 143.792 378.344 142.688ZM381.062 118.656C381.062 121.99 381.771 124.708 383.188 126.812C384.625 128.917 386.875 129.969 389.938 129.969C391.979 129.969 393.719 129.417 395.156 128.312C396.615 127.208 397.646 125.938 398.25 124.5V111.688C397.625 110.25 396.594 108.99 395.156 107.906C393.719 106.802 391.979 106.25 389.938 106.25C386.875 106.25 384.625 107.323 383.188 109.469C381.771 111.615 381.062 114.344 381.062 117.656V118.656ZM410.031 133V103.375H413.719L413.781 107.594H413.875C414.854 106.01 416.156 104.812 417.781 104C419.427 103.167 421.25 102.75 423.25 102.75C426.125 102.75 428.406 103.583 430.094 105.25C431.802 106.896 432.656 109.646 432.656 113.5V133H428.688V113.719C428.688 111.031 428.104 109.125 426.938 108C425.792 106.854 424.156 106.281 422.031 106.281C420.219 106.281 418.615 106.792 417.219 107.812C415.823 108.833 414.75 110.156 414 111.781V133H410.031Z" fill="white"/>
<circle cx="54" cy="54" r="54" fill="#89D9D9"/>
<path d="M106.562 56.4375C107.188 56.4375 107.729 56.6667 108.188 57.125C108.688 57.5417 108.938 58.1042 108.938 58.8125C108.938 59.7292 108.542 60.4167 107.75 60.875C107.625 60.9583 107.062 61.3542 106.062 62.0625C105.104 62.7708 104.042 63.9167 102.875 65.5C101.708 67.0833 100.583 69.1875 99.5 71.8125C98.4167 74.3958 97.7292 77.6042 97.4375 81.4375C97.3542 82.1042 97.2917 82.7708 97.25 83.4375C97.25 84.1042 97.2292 84.7708 97.1875 85.4375C97.9375 85.3542 98.7083 85.2917 99.5 85.25C100.333 85.1667 101.208 85.125 102.125 85.125C105.125 85.125 108.021 85.4583 110.812 86.125C113.604 86.7917 116.167 87.75 118.5 89C124.542 86.5833 129.167 83.375 132.375 79.375C135.583 75.375 137.188 70.9167 137.188 66C137.188 62.3333 136.271 59.0833 134.438 56.25C132.604 53.375 130.021 50.9583 126.688 49C123.396 47.0417 119.438 45.5417 114.812 44.5C110.229 43.4583 105.188 42.9375 99.6875 42.9375C94.8958 42.9375 90 43.3125 85 44.0625C80.0417 44.7708 75.2292 45.8542 70.5625 47.3125C65.9375 48.7708 61.5833 50.5833 57.5 52.75C53.4167 54.9167 49.8542 57.4167 46.8125 60.25C43.7708 63.0417 41.375 66.1667 39.625 69.625C37.875 73.0833 37 76.8333 37 80.875C37 83.875 37.5208 86.5208 38.5625 88.8125C39.6042 91.0625 40.9792 92.9583 42.6875 94.5C44.4375 96 46.4375 97.1458 48.6875 97.9375C50.9375 98.6875 53.2917 99.0625 55.75 99.0625C58.6667 99.0625 61.2292 98.7708 63.4375 98.1875C65.6458 97.6042 67.5 96.9792 69 96.3125C70.5 95.6042 71.625 94.9583 72.375 94.375C73.1667 93.75 73.6042 93.3958 73.6875 93.3125C73.9792 93.1042 74.3125 92.875 74.6875 92.625C75.0625 92.3333 75.4583 92.1875 75.875 92.1875C76.5 92.1875 77.0417 92.4167 77.5 92.875C77.9583 93.2917 78.1875 93.8333 78.1875 94.5C78.1875 95.1667 77.9583 95.7083 77.5 96.125C77.4167 96.2083 76.875 96.6667 75.875 97.5C74.9167 98.2917 73.5208 99.1458 71.6875 100.062C69.8542 100.979 67.6042 101.812 64.9375 102.562C62.3125 103.312 59.2917 103.688 55.875 103.688C52.7083 103.688 49.6875 103.167 46.8125 102.125C43.9792 101.083 41.4792 99.5833 39.3125 97.625C37.1458 95.6667 35.4167 93.2917 34.125 90.5C32.875 87.6667 32.25 84.4583 32.25 80.875C32.25 76.9167 33.0625 73.125 34.6875 69.5C36.3125 65.8333 38.6042 62.4167 41.5625 59.25C44.5208 56.0833 48.0625 53.2292 52.1875 50.6875C56.3125 48.1042 60.8542 45.8958 65.8125 44.0625C70.8125 42.2292 76.1667 40.8125 81.875 39.8125C87.5833 38.8125 93.4792 38.3125 99.5625 38.3125C105.771 38.3125 111.458 38.9375 116.625 40.1875C121.833 41.3958 126.312 43.1667 130.062 45.5C133.812 47.7917 136.729 50.625 138.812 54C140.896 57.3333 141.938 61.125 141.938 65.375C141.938 71 140.312 76.1042 137.062 80.6875C133.854 85.2708 129.125 89.0833 122.875 92.125C125.167 94.0833 126.958 96.375 128.25 99C129.583 101.583 130.562 104.208 131.188 106.875C131.854 109.542 132.271 112.083 132.438 114.5C132.646 116.917 132.792 118.938 132.875 120.562C132.958 122.938 133.167 124.875 133.5 126.375C133.875 127.833 134.375 128.979 135 129.812C135.667 130.646 136.458 131.229 137.375 131.562C138.333 131.854 139.479 132 140.812 132C142.688 132 144.417 131.562 146 130.688C147.583 129.771 149 128.646 150.25 127.312C151.542 125.979 152.667 124.542 153.625 123C154.625 121.417 155.458 119.958 156.125 118.625C156.792 117.25 157.292 116.125 157.625 115.25C158 114.333 158.188 113.854 158.188 113.812C158.604 112.771 159.333 112.25 160.375 112.25C161.083 112.25 161.646 112.5 162.062 113C162.521 113.458 162.75 114 162.75 114.625C162.75 114.833 162.708 115.104 162.625 115.438C162.583 115.604 162.333 116.25 161.875 117.375C161.458 118.458 160.833 119.792 160 121.375C159.167 122.917 158.125 124.583 156.875 126.375C155.625 128.167 154.167 129.833 152.5 131.375C150.875 132.875 149.021 134.125 146.938 135.125C144.896 136.125 142.625 136.625 140.125 136.625C137.917 136.625 136.062 136.271 134.562 135.562C133.104 134.854 131.896 133.833 130.938 132.5C130.021 131.125 129.333 129.479 128.875 127.562C128.458 125.604 128.208 123.375 128.125 120.875C128.083 119.833 128.021 118.604 127.938 117.188C127.854 115.729 127.688 114.208 127.438 112.625C127.229 111 126.917 109.333 126.5 107.625C126.083 105.917 125.5 104.25 124.75 102.625C124 101 123.062 99.4583 121.938 98C120.812 96.5417 119.438 95.2708 117.812 94.1875C114.604 95.2708 111.271 96.125 107.812 96.75C104.396 97.3333 100.854 97.6458 97.1875 97.6875V99.5625C97.1875 104.688 96.6667 109.5 95.625 114C94.625 118.458 92.9792 122.354 90.6875 125.688C88.3958 128.979 85.4375 131.562 81.8125 133.438C78.1875 135.354 73.7708 136.312 68.5625 136.312C65.9792 136.312 63.4167 135.958 60.875 135.25C58.375 134.583 56.0208 133.646 53.8125 132.438C51.6458 131.229 49.6875 129.812 47.9375 128.188C46.2292 126.521 44.875 124.729 43.875 122.812C43.6667 122.479 43.5625 122.104 43.5625 121.688C43.5625 121.104 43.7708 120.583 44.1875 120.125C44.6458 119.625 45.2292 119.375 45.9375 119.375C46.8542 119.375 47.5417 119.771 48 120.562C48.9167 122.188 50.1042 123.688 51.5625 125.062C53.0208 126.438 54.6458 127.625 56.4375 128.625C58.2708 129.583 60.2083 130.333 62.25 130.875C64.3333 131.417 66.4375 131.688 68.5625 131.688C72.8542 131.688 76.5208 130.938 79.5625 129.438C82.6042 127.896 85.0833 125.729 87 122.938C88.9167 120.104 90.3125 116.729 91.1875 112.812C92.0625 108.854 92.5 104.438 92.5 99.5625V97.125C91.125 96.6667 90.0208 96.0208 89.1875 95.1875C88.3542 94.3542 87.9375 93.3333 87.9375 92.125C87.9375 90.9167 88.3333 89.8542 89.125 88.9375C89.9167 88.0208 91.0417 87.2708 92.5 86.6875C92.5 85.7292 92.5208 84.7917 92.5625 83.875C92.6042 82.9167 92.6667 81.9792 92.75 81.0625C93 78.0625 93.4583 75.375 94.125 73C94.8333 70.625 95.6458 68.5417 96.5625 66.75C97.5208 64.9583 98.5 63.4375 99.5 62.1875C100.5 60.9375 101.438 59.9167 102.312 59.125C103.188 58.2917 103.917 57.6875 104.5 57.3125C105.083 56.9375 105.417 56.7292 105.5 56.6875C105.792 56.5208 106.146 56.4375 106.562 56.4375ZM112.438 91.3125C111.729 91.1042 111.042 90.8958 110.375 90.6875C109.708 90.4792 108.979 90.3125 108.188 90.1875C107.438 90.0208 106.583 89.8958 105.625 89.8125C104.708 89.6875 103.646 89.625 102.438 89.625C100.271 89.625 98.5 89.75 97.125 90V90.0625V93.0625C99.6667 93.0625 102.271 92.9167 104.938 92.625C107.646 92.3333 110.146 91.8958 112.438 91.3125Z" fill="white"/>
</svg>
